<svg width="52" height="53" viewBox="0 0 52 53" fill="none" xmlns="http://www.w3.org/2000/svg">
<path d="M51.982 26.5108V26.41C51.931 12.1432 40.2668 0.5 25.991 0.5C11.7152 0.5 0 12.1432 0 26.5108C0 40.8802 11.6622 52.5 25.991 52.5C32.566 52.5044 38.8896 50.011 43.6462 45.5386C44.1146 45.1168 44.394 44.529 44.4226 43.9046C44.4512 43.28 44.2268 42.6698 43.7988 42.2082C43.3708 41.7466 42.7742 41.4714 42.1402 41.4432C41.5064 41.4152 40.887 41.6362 40.4186 42.0578L40.3674 42.1082C38.315 44.0306 35.8896 45.5244 33.2368 46.5C30.5838 47.4758 27.7582 47.9134 24.9294 47.7864C22.1006 47.6594 19.327 46.9706 16.7752 45.7612C14.2234 44.5518 11.9459 42.847 10.0795 40.7488L21.1824 23.2066V31.324C21.1824 35.2026 22.7178 36.465 24.008 36.8178C25.2984 37.1708 27.2338 36.9152 29.3302 33.6396L35.4218 23.8944C35.5844 23.61 35.7726 23.3398 35.981 23.086V28.0288C35.981 31.6572 37.465 34.5814 40.022 35.9914C41.2022 36.6246 42.5346 36.931 43.8774 36.878C45.2204 36.825 46.5236 36.4148 47.6488 35.6906C50.6022 33.8018 52.1886 30.494 51.982 26.5108ZM45.227 31.6158C44.817 31.8942 44.3386 32.0594 43.842 32.0946C43.3452 32.1296 42.8478 32.0334 42.4016 31.8156C41.378 31.2124 40.7622 29.8528 40.7622 27.9874V22.2738C40.7622 19.5548 39.6874 17.5866 37.847 17.086C34.7236 16.1569 32.3732 19.9582 31.5014 21.3698L25.991 30.0888V19.3532C25.9398 16.8844 25.1192 15.4222 23.584 14.9667C22.5606 14.6659 21.0254 14.819 19.543 17.0374L7.21192 36.4938C5.57146 33.414 4.71176 29.9888 4.7062 26.5108C4.7062 14.765 14.2721 5.23758 25.991 5.23758C37.71 5.23758 47.2758 14.765 47.2758 26.5108V26.6134C47.3984 28.8786 46.66 30.6974 45.229 31.6014L45.227 31.6158Z" fill="white"/>
</svg>
