<svg width="29" height="28" viewBox="0 0 29 28" fill="none" xmlns="http://www.w3.org/2000/svg">
<path d="M6.33301 17.5H5.16634C4.5475 17.5 3.95401 17.2542 3.51643 16.8166C3.07884 16.379 2.83301 15.7855 2.83301 15.1667V4.66671C2.83301 4.04787 3.07884 3.45438 3.51643 3.01679C3.95401 2.57921 4.5475 2.33337 5.16634 2.33337H15.6663C16.2852 2.33337 16.8787 2.57921 17.3163 3.01679C17.7538 3.45438 17.9997 4.04787 17.9997 4.66671V5.83337M13.333 10.5H23.833C25.1217 10.5 26.1663 11.5447 26.1663 12.8334V23.3334C26.1663 24.622 25.1217 25.6667 23.833 25.6667H13.333C12.0443 25.6667 10.9997 24.622 10.9997 23.3334V12.8334C10.9997 11.5447 12.0443 10.5 13.333 10.5Z" stroke="#A6A6A6" stroke-width="4" stroke-linecap="round" stroke-linejoin="round"/>
</svg>
