<svg width="40" height="51" viewBox="0 0 40 51" fill="none" xmlns="http://www.w3.org/2000/svg">
<path fill-rule="evenodd" clip-rule="evenodd" d="M29.264 14.9066C27.4082 16.4468 25.5548 17.5708 24.098 18.3346C25.1628 18.967 26.335 19.1058 27.3392 18.868C27.8684 18.7432 28.3472 18.5122 28.7304 18.195C29.0844 17.9014 29.3536 17.5324 29.4966 17.1082C29.6982 16.5062 29.6552 15.7608 29.264 14.9066ZM26.2788 27.3302L24.3506 26.1592C24.1642 26.085 24.0046 25.9508 23.8952 25.7756C23.7856 25.6004 23.7318 25.3932 23.7412 25.1838C23.9178 21.254 22.9086 19.5162 21.5474 18.4252C21.0588 18.0344 20.5258 17.838 20 17.838C19.4742 17.838 18.9412 18.0344 18.4528 18.4252C17.0916 19.5162 16.0824 21.254 16.259 25.1838C16.2684 25.3932 16.2144 25.6004 16.105 25.7756C15.9954 25.9508 15.836 26.085 15.6496 26.1592L13.7212 27.3302C17.4086 29.5032 18.5814 33.42 19.7598 37.3554C19.8396 37.6218 19.9194 37.8884 20 38.1544C20.0808 37.888 20.1606 37.6212 20.2404 37.3546C21.4188 33.4194 22.5916 29.503 26.2788 27.3302ZM26.4026 1.90286C24.4634 1.01786 22.2288 0.56292 20 0.5C17.7712 0.56292 15.5368 1.01786 13.5974 1.90286C12.2546 2.5165 11.0016 3.32706 9.86698 4.29634C9.35476 4.73392 8.93286 5.15682 8.46794 5.64328C7.21444 5.68884 5.38254 4.22474 4.53222 2.85478C5.99588 7.89976 12.6748 13.8575 17.2988 16.1372C17.3008 16.1364 17.302 16.135 17.3034 16.1342C18.1334 15.468 19.0666 15.1348 20 15.1348C20.9334 15.1348 21.8668 15.468 22.6966 16.1342C22.6982 16.1352 22.6994 16.1364 22.7012 16.1372C27.3252 13.8575 34.0042 7.89976 35.468 2.85478C34.6174 4.22474 32.7856 5.68884 31.532 5.64328C31.0674 5.15664 30.6454 4.73392 30.133 4.29634C28.9984 3.32706 27.7454 2.5165 26.4026 1.90286ZM10.7362 14.9066C12.5918 16.4468 14.4454 17.5708 15.902 18.3346C14.8374 18.967 13.665 19.1058 12.661 18.868C12.1318 18.7432 11.653 18.5122 11.2696 18.195C10.9158 17.9014 10.6466 17.5324 10.5034 17.1082C10.302 16.5062 10.345 15.7608 10.7362 14.9066ZM33.942 9.66494C33.218 10.7355 32.318 11.9353 31.2964 13.0192L31.6156 13.7161C32.2352 15.0696 32.4406 16.5826 31.9576 18.0216C31.6466 18.9486 31.0782 19.7434 30.346 20.3502C29.635 20.9394 28.7934 21.3366 27.9122 21.5452C27.3382 21.6812 26.7534 21.737 26.1726 21.718C26.308 22.526 26.3674 23.3638 26.3712 24.2176L31.556 27.3662L27.555 29.724C27.2352 29.9126 26.9308 30.1286 26.645 30.3698C23.9544 32.9094 22.1392 39.5056 20.8216 44.293C20.5238 45.3752 20.2514 46.365 20.0002 47.1946C19.749 46.3654 19.4766 45.376 19.179 44.294C17.8616 39.5066 16.0462 32.9096 13.3556 30.3698C13.0696 30.1286 12.7652 29.9126 12.4454 29.724L8.44444 27.3662L13.6292 24.2176C13.633 23.3638 13.6922 22.526 13.8278 21.718C13.2468 21.737 12.662 21.6812 12.088 21.5452C11.207 21.3366 10.3654 20.9394 9.65428 20.3502C8.9219 19.7434 8.3538 18.9486 8.04254 18.0216C7.55968 16.5826 7.76492 15.0694 8.38476 13.7161L8.7038 13.0194C7.68206 11.9353 6.78206 10.7357 6.05826 9.6651L5.6908 10.3926C4.50698 12.8818 3.89222 15.3612 3.89222 18.1518L3.89476 22.5796L3.87254 24.875C3.78666 30.5102 2.62698 36.2114 0 41.429L5.4965 36.7692L9.38556 43.4044L13.4712 39.3606L20 50.5L26.5288 39.3604L30.6146 43.4044L34.5036 36.769L40 41.4288C37.373 36.2114 36.2134 30.51 36.1276 24.8748L36.1054 22.5794L36.108 18.1516C36.108 15.3612 35.493 12.8818 34.3096 10.3924L33.942 9.66494Z" fill="white"/>
</svg>
