<svg width="48" height="49" viewBox="0 0 48 49" fill="none" xmlns="http://www.w3.org/2000/svg">
<path opacity="0.992" fill-rule="evenodd" clip-rule="evenodd" d="M26.2748 0.5H21.6074C16.9724 0.98798 12.8147 2.6457 9.13384 5.47316C3.95854 9.63514 0.91394 15.0244 0 21.641V27.359C0.57502 31.8508 2.24486 35.8776 5.00954 39.4396C9.25778 44.6568 14.7368 47.677 21.4464 48.5H26.3956C30.3448 48.0574 33.9796 46.7488 37.2998 44.5738C42.911 40.6974 46.3646 35.3888 47.661 28.6476C48.72 21.9344 47.298 15.8136 43.3958 10.2852C39.0956 4.60532 33.3888 1.3436 26.2748 0.5ZM40.1768 9.3188C35.4518 4.4427 29.6778 2.09372 22.8548 2.27182C18.244 2.55016 14.0996 4.07364 10.4214 6.84228C5.97434 10.3451 3.19126 14.8886 2.07222 20.4732C1.05734 26.4962 2.23762 32.0398 5.61308 37.104C6.61704 34.8544 7.28768 32.5054 7.62494 30.057C7.9413 27.6352 8.18272 25.2056 8.34922 22.7684C8.39746 22.256 8.46454 21.7458 8.5504 21.2382C8.88456 18.9782 9.89722 17.0924 11.5883 15.5806C13.1901 14.3057 14.9806 13.3728 16.96 12.7819C18.1182 12.3672 19.3118 12.1524 20.541 12.1376C21.708 12.1762 22.8614 12.3238 24.0014 12.5805C24.7438 12.4177 25.4948 12.3371 26.2548 12.3389C27.6802 12.2404 28.847 12.7371 29.7554 13.8289C29.9684 14.0805 30.1292 14.3624 30.2382 14.6744C31.2866 15.1362 32.3528 15.559 33.4372 15.943C34.729 16.3466 36.0166 16.7628 37.2998 17.1912C38.4818 17.628 39.5414 18.2588 40.4786 19.0838C41.8914 20.5366 42.1798 22.1944 41.3438 24.057C40.8794 25.0046 40.289 25.8638 39.5732 26.6342L37.501 28.6678L35.4288 30.7014C34.73 31.441 34.046 32.1926 33.3768 32.9564C32.3044 34.2172 31.3254 35.5462 30.4394 36.943C29.506 38.4424 28.7818 40.0396 28.2666 41.7348C27.819 43.2672 27.6982 44.8242 27.9044 46.406C31.4334 45.7368 34.6188 44.321 37.4608 42.1578C42.5806 38.0928 45.4576 32.784 46.0916 26.2316C46.4756 19.7458 44.504 14.1081 40.1768 9.3188ZM24.8062 17.5738C23.9392 15.5856 22.417 14.646 20.2394 14.755C19.8736 14.8232 19.5116 14.9238 19.153 15.057C17.323 15.934 16.4444 17.3904 16.5174 19.4262C16.7822 21.3156 17.8216 22.5572 19.6358 23.151C21.1022 23.5126 22.4166 23.2174 23.579 22.2652C24.9536 20.9572 25.3626 19.3936 24.8062 17.5738ZM37.0786 23.453C37.078 22.7478 36.7226 22.3988 36.0122 22.406C35.7848 22.4838 35.5902 22.618 35.4288 22.8088C35.1624 23.3338 35.263 23.77 35.7306 24.1174C36.4124 24.3634 36.8618 24.142 37.0786 23.453ZM38.5874 26.7348C39.1624 26.3872 39.699 25.9912 40.197 25.547C38.255 26.8378 36.1494 27.784 33.8798 28.386C31.7296 28.9782 29.5434 29.1796 27.321 28.99C26.2632 28.872 25.2706 28.5564 24.3434 28.0436C24.4664 28.187 24.6004 28.3278 24.7458 28.4664C26.0326 29.3676 27.4678 29.8038 29.0512 29.7752C32.4704 29.5092 35.6492 28.4958 38.5874 26.7348ZM23.76 18.4194C23.2842 16.8096 22.2046 16.0042 20.521 16.0034C19.338 16.16 18.4862 16.7776 17.966 17.8558C17.627 18.7926 17.6808 19.7054 18.1268 20.594C18.94 21.823 20.0732 22.2994 21.5268 22.0234C23.2464 21.435 23.9908 20.2336 23.76 18.4194Z" fill="white"/>
</svg>
