<svg width="44" height="37" viewBox="0 0 44 37" fill="none" xmlns="http://www.w3.org/2000/svg">
<path fill-rule="evenodd" clip-rule="evenodd" d="M43.972 3.62386C43.3628 9.9486 40.725 25.2966 39.3832 32.3806C38.8152 35.379 37.6964 36.3836 36.614 36.4822C34.2626 36.6962 32.4762 34.9462 30.1976 33.4712C26.6324 31.1636 24.6182 29.7276 21.1574 27.4762C17.1572 24.8732 19.7508 23.4434 22.0294 21.106C22.626 20.4936 32.9904 11.1846 33.1914 10.3408C33.2168 10.2346 33.2404 9.8408 33.003 9.633C32.7658 9.4252 32.416 9.497 32.1644 9.5534C31.8068 9.63301 26.1102 13.35 15.078 20.7046C13.4608 21.8014 11.9971 22.3342 10.6838 22.3076C9.23747 22.2764 6.45567 21.4998 4.38751 20.8358C1.85097 20.0218 -0.164973 19.5906 0.0106673 18.2078C0.100867 17.4874 1.10567 16.7516 3.02351 15.9984C14.8328 10.9174 22.7066 7.56901 26.6468 5.95035C37.8972 1.33035 40.2346 0.527085 41.7582 0.500525C43.6668 0.467245 44.1274 2.02282 43.972 3.62386Z" fill="white"/>
</svg>
